<svg xmlns="http://www.w3.org/2000/svg" width="203" height="74" viewBox="0 0 203 74" fill="none">
  <path d="M101.375 19.8016C104.863 18.5562 107.353 16.0654 107.353 12.0801C107.353 5.97764 101.749 3.3623 94.6503 3.3623H86.5552V41.596H97.1411C105.112 41.596 112.086 38.358 112.086 31.0102C112.086 25.0322 107.727 20.9224 101.375 19.8016ZM96.6429 39.2298H92.1595V20.7979V18.6807V5.35494H95.1485C100.379 5.35494 102.123 7.97028 102.123 11.831C102.123 12.4537 102.496 18.8052 97.3902 19.9261C98.7601 20.2997 101.126 21.047 103.119 22.9151C105.236 24.6586 106.108 27.274 106.108 30.3875C106.233 35.6181 103.244 39.2298 96.6429 39.2298Z" fill="white"/>
  <path d="M6.10246 40.1016C8.71779 41.4715 12.0804 42.0942 14.8202 42.0942C19.8018 42.0942 28.5196 40.3506 28.5196 31.6328C28.5196 25.5304 24.1607 22.1678 16.9374 17.1862C13.5748 14.82 9.09141 12.4537 9.09141 8.46843C9.09141 5.23039 12.0804 3.23776 16.3147 3.23776C20.5491 3.23776 23.7871 5.23039 24.5344 5.72855L22.4172 2.1169C20.9227 1.4942 17.8092 1.24512 16.1902 1.24512C10.7104 1.24512 4.23436 3.61137 4.23436 10.212C4.23436 15.4427 8.34417 18.3071 15.0693 23.1641C18.1828 25.4059 23.1644 29.0175 23.1644 33.3764C23.1644 37.4862 19.9264 39.977 14.8202 39.977C8.84233 39.977 4.3589 36.3654 3.36258 35.4936L6.10246 40.1016Z" fill="white"/>
  <path d="M55.7939 42.0939C45.5816 42.0939 37.611 33.9988 37.611 22.2921C37.611 10.9589 45.5816 2.49023 55.7939 2.49023C66.0061 2.49023 73.9767 10.9589 73.9767 22.2921C73.9767 33.8743 66.0061 42.0939 55.7939 42.0939ZM68.3724 22.2921C68.3724 11.9553 63.3908 4.60741 55.7939 4.60741C48.3215 4.60741 43.2153 11.9553 43.2153 22.2921C43.2153 32.7534 48.1969 39.9767 55.7939 39.9767C63.2663 39.9767 68.3724 32.7534 68.3724 22.2921Z" fill="white"/>
  <path d="M189.052 30.2631H174.356L169.748 41.4717H167.506L183.572 2.36621L199.637 41.4717H193.784L189.052 30.2631ZM175.228 28.0214H188.18L181.704 12.0803L175.228 28.0214Z" fill="white"/>
  <path d="M151.191 3.2373V18.9293H130.642V3.2373H125.038V41.471H130.642V21.0465H151.191V41.471H156.796V3.2373H151.191Z" fill="white"/>
  <path d="M64.138 72.2326H61.8963V60.6504H67.5006C70.1159 60.6504 71.4859 61.8958 71.4859 63.8884V64.5111C71.4859 66.0056 70.4896 67.251 68.9951 67.6246L71.984 72.2326H69.4932L66.6288 67.8737H64.2626V72.2326H64.138ZM64.138 66.1301H66.8779C68.3724 66.1301 69.1196 65.5074 69.1196 64.5111V64.013C69.1196 63.0166 68.4969 62.3939 67.0024 62.3939H64.138V66.1301Z" fill="white"/>
  <path d="M85.808 60.6504V62.5185H79.3319V65.5074H84.438V67.251H79.3319V70.3645H85.808V72.2326H77.0902V60.6504H85.808Z" fill="white"/>
  <path d="M97.6392 69.8669H92.5331L91.6613 72.2331H89.4196L94.0276 60.5264H96.5184L101.126 72.2331H98.7601L97.6392 69.8669ZM93.1558 68.1233H97.0165L95.1484 63.0172L93.1558 68.1233Z" fill="white"/>
  <path d="M108.101 60.6504V70.24H113.829V72.2326H105.859V60.6504H108.101Z" fill="white"/>
  <path d="M126.408 60.6504V62.5185H122.423V72.2326H120.181V62.5185H116.196V60.6504H126.408Z" fill="white"/>
  <path d="M132.51 60.6504L135.624 65.8811L138.613 60.6504H141.104L136.62 67.7492V72.2326H134.379V67.7492L130.02 60.6504H132.51Z" fill="white"/>
</svg>