<svg xmlns="http://www.w3.org/2000/svg" width="64" height="70" viewBox="0 0 64 70" fill="none">
  <g clip-path="url(#clip0_1_1572)">
    <path fill-rule="evenodd" clip-rule="evenodd" d="M15.2126 32.6102C17.996 34.4296 21.2342 35.432 24.5585 35.5031C27.8833 35.5745 31.1613 34.7113 34.0202 33.0127L36.7391 34.7927C37.3776 35.2149 38.1551 35.3714 38.9072 35.2305H38.9777L41.5626 34.6936L42.0149 36.8549C42.1966 37.7239 42.7159 38.4856 43.4587 38.9713C44.2021 39.4575 45.1076 39.6285 45.9766 39.4466L48.1379 38.9945L48.6675 41.5586C48.8281 42.3311 49.2878 43.009 49.946 43.4439L52.1422 44.8563C52.5949 45.1543 53.1256 45.3145 53.668 45.3155C53.8601 45.3164 54.0517 45.2973 54.2405 45.2593L61.4793 43.7903C62.1187 43.6564 62.6789 43.2735 63.0365 42.7266C63.3942 42.1794 63.5199 41.5128 63.3864 40.8734L61.8818 33.6345C61.7306 32.9083 61.296 32.2728 60.6743 31.8688L42.5513 19.9893C43.0858 15.7776 42.0931 11.5138 39.7535 7.97068C37.4134 4.42804 33.8821 1.84075 29.7986 0.678579C25.715 -0.48407 21.3502 -0.144626 17.4952 1.6348C13.6407 3.41418 10.5513 6.51592 8.78716 10.3777C7.02304 14.2396 6.70131 18.6059 7.87971 22.6845C9.05863 26.7637 11.66 30.285 15.2126 32.6102ZM13.0371 9.96709C15.4604 6.25206 19.4784 3.88142 23.9018 3.55579C28.3253 3.23065 32.6467 4.98836 35.5873 8.3089C38.5279 11.6294 39.7508 16.1315 38.893 20.4831C38.755 21.1871 39.0565 21.9044 39.6562 22.2981L58.4917 34.6576L59.7204 40.5407L53.8372 41.7693L52.0859 40.6255L51.3301 36.9882C51.2114 36.4029 50.8626 35.8901 50.3621 35.5645C49.8611 35.2389 49.2506 35.1284 48.6673 35.258L45.4115 35.9645L44.705 32.7086C44.5844 32.1303 44.2395 31.6238 43.7453 31.3007C43.2513 30.9775 42.6492 30.8642 42.0714 30.9854L38.4765 31.7125L34.9946 29.4311C34.399 29.0305 33.6196 29.031 33.024 29.4316C29.3785 31.947 24.7687 32.6204 20.5552 31.2533C16.3421 29.8857 13.0064 26.6337 11.5324 22.4567C10.0588 18.2795 10.6151 13.6546 13.037 9.94594L13.0371 9.96709ZM14.9923 48.2752L16.0869 50.7262C16.3929 51.4086 16.9569 51.9421 17.655 52.2091L19.5902 52.9156L19.0039 54.5261C18.7054 55.305 18.7291 56.1711 19.0695 56.9327C19.4098 57.6943 20.0395 58.2895 20.8193 58.5869L22.3943 59.1875L21.6879 61.1157C21.4194 61.8152 21.4396 62.5922 21.7445 63.2765L22.6766 65.3954C22.9603 66.0441 23.4918 66.5526 24.1525 66.8077L30.1485 69.103C30.7318 69.3 31.3683 69.2625 31.9245 68.999C32.4807 68.7355 32.9122 68.2665 33.129 67.6906L35.4316 61.6946C35.681 61.0354 35.6608 60.3043 35.375 59.6604L27.776 42.569C28.1967 42.0592 28.5858 41.5236 28.9411 40.9655C29.4579 40.1388 29.2066 39.0496 28.3794 38.5327C27.5527 38.0159 26.4636 38.2672 25.9463 39.0939C25.5064 39.7989 24.995 40.4565 24.421 41.0576C23.9235 41.5758 23.7894 42.3433 24.082 42.9995L32.02 60.7404L30.2613 65.317L25.6851 63.5657L25.0211 62.0822L26.1438 59.1516C26.3572 58.6112 26.3453 58.0082 26.1103 57.4771C25.8753 56.946 25.4374 56.5317 24.8939 56.3263L22.4081 55.373L23.3687 52.9719C23.5821 52.4314 23.5697 51.8285 23.3347 51.2974C23.0998 50.7664 22.6618 50.3521 22.1184 50.1466L19.1877 49.0164L17.7752 45.7961C17.4866 45.1354 16.8215 44.7202 16.1013 44.7506C11.805 44.8995 7.75048 42.7627 5.44341 39.135C3.13686 35.5071 2.92208 30.9297 4.87883 27.1017C5.32173 26.2277 4.97244 25.1606 4.09849 24.7179C3.22503 24.2754 2.15742 24.6247 1.71513 25.4986C-0.711623 30.2482 -0.554481 35.9062 2.13142 40.5142C4.81783 45.1219 9.66343 48.0467 14.9923 48.2752ZM21.1234 20.7607C20.0515 20.7622 19.0027 20.4479 18.108 19.8567L18.1216 19.8568C16.6931 18.9203 15.7811 17.3729 15.6546 15.6693C15.5275 13.9659 16.2005 12.3001 17.4749 11.1627C18.7489 10.0246 20.4801 9.54477 22.1585 9.86301C23.8364 10.1812 25.2716 11.2625 26.0406 12.7877C26.8096 14.3131 26.8254 16.1092 26.0834 17.6478C25.3415 19.1867 23.9261 20.2927 22.2536 20.6405C21.8817 20.7193 21.5033 20.7592 21.1234 20.7607ZM20.721 13.3591C20.2096 13.4641 19.7623 13.769 19.478 14.2066L19.4779 14.2419C19.1775 14.8252 19.1877 15.5204 19.5065 16.0938C19.8247 16.6677 20.4085 17.0447 21.0628 17.0979C21.7171 17.1515 22.3545 16.8752 22.7619 16.3608C23.023 15.9642 23.132 15.4863 23.0684 15.0159C23.0044 14.5454 22.7723 14.1139 22.4147 13.8016C22.057 13.4892 21.5983 13.3168 21.1234 13.3168C20.988 13.3172 20.8535 13.3315 20.721 13.3591Z" fill="#CAA788"/>
  </g>
  <defs>
    <clipPath id="clip0_1_1572">
      <rect width="63.4587" height="69.2277" fill="white"/>
    </clipPath>
  </defs>
</svg>