<svg xmlns="http://www.w3.org/2000/svg" width="74" height="70" viewBox="0 0 74 70" fill="none">
  <g clip-path="url(#clip0_1_1565)">
    <path fill-rule="evenodd" clip-rule="evenodd" d="M65.734 44.7385C66.5348 45.0406 66.9372 45.9388 66.6357 46.7365C61.6255 59.9606 48.7571 68.8457 34.6139 68.8457C15.7379 68.8457 0.382024 53.489 0.382025 34.6138C0.382025 15.7367 15.7371 0.381835 34.6139 0.381836C52.1128 0.381836 66.579 13.584 68.5967 30.5523L70.5071 28.1927C71.0459 27.5253 72.0208 27.4238 72.6865 27.9621C73.352 28.4985 73.4565 29.4758 72.9165 30.1409L68.5115 35.5888C68.4858 35.6194 68.4567 35.6469 68.4278 35.6743C68.4188 35.6828 68.4098 35.6913 68.4009 35.6999C68.3949 35.7059 68.3888 35.7119 68.3835 35.7161C68.3198 35.778 68.2513 35.8344 68.1792 35.8855C68.1687 35.8911 68.159 35.8974 68.1491 35.9039C68.1471 35.9051 68.1451 35.9064 68.1432 35.9078C68.0753 35.9528 68.0044 35.9912 67.9324 36.0225C67.9206 36.0275 67.9088 36.0325 67.8969 36.0375C67.8851 36.0424 67.8732 36.0474 67.8614 36.0525C67.796 36.0777 67.7305 36.0963 67.6626 36.1137C67.6278 36.121 67.5918 36.1282 67.5539 36.1342C67.4944 36.1438 67.435 36.1498 67.3749 36.1534C67.3639 36.1542 67.3532 36.1558 67.3423 36.1575C67.3276 36.1597 67.3129 36.1618 67.298 36.1618C67.2849 36.1618 67.2723 36.16 67.2597 36.1583C67.2515 36.1571 67.2433 36.156 67.2349 36.1553C67.1927 36.1537 67.1514 36.1479 67.1094 36.142C67.1036 36.1412 67.0977 36.1404 67.0919 36.1396C67.0318 36.1318 66.9718 36.1234 66.9147 36.1077C66.9078 36.1059 66.901 36.104 66.8942 36.1022C66.8715 36.0961 66.8494 36.0901 66.8276 36.0813C66.7525 36.0573 66.6811 36.0285 66.6131 35.996C66.5987 35.9906 66.5855 35.9822 66.5711 35.9726C66.4889 35.9282 66.4107 35.8795 66.3375 35.8212L66.3321 35.817L60.8848 31.4119C60.5057 31.1061 60.3093 30.6586 60.3093 30.2063C60.3093 29.8639 60.4204 29.5191 60.6528 29.2325C61.1911 28.567 62.1667 28.4636 62.8323 29.0019L65.5547 31.204C63.8508 15.6365 50.6271 3.48172 34.6137 3.48172C17.4473 3.48172 3.48204 17.4467 3.48204 34.6118C3.48204 51.7771 17.4471 65.7435 34.6137 65.7435C47.4761 65.7435 59.179 57.6652 63.7354 45.6396C64.0376 44.8394 64.9339 44.4346 65.734 44.7385ZM46.116 21.9803L21.1091 46.9872C20.7565 47.3915 20.7769 47.9992 21.1563 48.378C21.5352 48.7574 22.1429 48.7779 22.5471 48.4253L47.554 23.4183C47.7668 23.2328 47.8929 22.9669 47.9027 22.6849C47.9124 22.4025 47.8043 22.1293 47.6047 21.9297C47.405 21.73 47.1318 21.6218 46.8493 21.6316C46.5674 21.6413 46.3015 21.7676 46.116 21.9803ZM36.9395 37.4195C38.118 36.2415 39.7157 35.5792 41.3822 35.5792C43.0488 35.5792 44.6469 36.2415 45.8254 37.4195C47.0035 38.598 47.6659 40.1963 47.6659 41.8627C47.6659 43.5288 47.0035 45.1271 45.8254 46.3055C44.6469 47.484 43.0486 48.1458 41.3822 48.1458C39.7157 48.1458 38.118 47.4839 36.9395 46.3055C35.761 45.1271 35.0992 43.5287 35.0992 41.8627C35.0992 40.1962 35.761 38.598 36.9395 37.4195ZM38.3712 44.8737C39.1699 45.6723 40.253 46.1214 41.3822 46.1214C42.512 46.1214 43.595 45.6723 44.3937 44.8737C45.1923 44.075 45.6408 42.9921 45.6408 41.8627C45.6408 40.7329 45.1923 39.6499 44.3937 38.8512C43.595 38.0526 42.512 37.6041 41.3822 37.6041C40.253 37.6041 39.1699 38.0527 38.3712 38.8512C37.5726 39.6499 37.1236 40.7329 37.1236 41.8627C37.1236 42.992 37.5727 44.075 38.3712 44.8737ZM31.7227 32.9858C30.5442 34.1638 28.9465 34.8261 27.28 34.8261C25.6135 34.8261 24.0153 34.1637 22.8368 32.9858C21.6587 31.8073 20.9965 30.209 20.9965 28.5425C20.9965 26.8765 21.6587 25.2782 22.8368 24.0997C24.0153 22.9212 25.6136 22.2594 27.28 22.2594C28.9465 22.2594 30.5442 22.9212 31.7227 24.0997C32.9013 25.2782 33.5631 26.8766 33.5631 28.5425C33.5631 30.2091 32.9012 31.8073 31.7227 32.9858ZM27.28 24.2843C28.4093 24.2845 29.4924 24.7329 30.291 25.5316C31.0896 26.3302 31.5386 27.4133 31.5386 28.5425C31.5386 29.6723 31.0896 30.7554 30.291 31.5539C29.4923 32.3526 28.4093 32.8012 27.28 32.8012C26.1502 32.8012 25.0672 32.3526 24.2685 31.5539C23.47 30.7553 23.0214 29.6722 23.0214 28.5425C23.0229 27.4137 23.4723 26.3316 24.2706 25.5334C25.0687 24.7354 26.1507 24.2863 27.28 24.2843Z" fill="#CAA788"/>
    <path fill-rule="evenodd" clip-rule="evenodd" d="M41.3176 46.121C41.3391 46.1212 41.3608 46.1213 41.3822 46.1213C41.4038 46.1213 41.4252 46.1212 41.4466 46.121C42.553 46.1041 43.6103 45.657 44.3937 44.8736C45.1924 44.075 45.6409 42.992 45.6409 41.8627C45.6409 40.7329 45.1924 39.6498 44.3937 38.8512C43.5951 38.0525 42.512 37.604 41.3822 37.604C40.253 37.604 39.1699 38.0526 38.3713 38.8512C37.5726 39.6498 37.1237 40.7329 37.1237 41.8627C37.1237 42.9919 37.5727 44.075 38.3713 44.8736C39.1547 45.657 40.2117 46.1041 41.3176 46.121ZM62.8323 29.0018L65.5548 31.2039C65.5348 31.0224 65.5133 30.8415 65.4903 30.6609C63.5419 15.3547 50.4403 3.48164 34.6137 3.48164C17.4473 3.48164 3.48209 17.4466 3.48209 34.6118C3.48209 51.777 17.4471 65.7435 34.6137 65.7435C47.4761 65.7435 59.179 57.6652 63.7355 45.6395C64.0377 44.8393 64.9339 44.4345 65.7341 44.7384C66.4055 44.9919 66.7967 45.6643 66.7279 46.3453C66.7146 46.4761 66.6843 46.6079 66.6358 46.7364C66.5856 46.8688 66.5346 47.0016 66.4828 47.133C61.3675 60.138 48.6154 68.8457 34.614 68.8457C15.738 68.8457 0.38208 53.4889 0.382081 34.6137C0.382081 15.7366 15.7372 0.381764 34.614 0.381765C51.9321 0.381765 66.2796 13.3127 68.5301 30.0276C68.5536 30.2022 68.5759 30.377 68.5968 30.5523L70.5071 28.1926C71.0459 27.5253 72.0209 27.4237 72.6865 27.962C73.352 28.4984 73.4566 29.4758 72.9166 30.1408L68.5115 35.5887C68.4859 35.6194 68.4567 35.6468 68.4279 35.6742C68.4242 35.6776 68.4203 35.6813 68.4166 35.6848C68.4113 35.6899 68.4062 35.6947 68.401 35.6998C68.395 35.7058 68.3889 35.7118 68.3836 35.7161C68.3199 35.7779 68.2513 35.8343 68.1792 35.8854C68.1687 35.891 68.159 35.8973 68.1491 35.9038L68.1432 35.9077C68.0754 35.9527 68.0044 35.9911 67.9324 36.0224C67.9207 36.0275 67.9089 36.0324 67.897 36.0374C67.8851 36.0424 67.8732 36.0473 67.8615 36.0524C67.796 36.0777 67.7305 36.0962 67.6627 36.1137C67.6278 36.1209 67.5918 36.1281 67.554 36.1341C67.4944 36.1438 67.435 36.1498 67.3749 36.1533C67.364 36.1542 67.3532 36.1558 67.3424 36.1574C67.3276 36.1596 67.313 36.1618 67.2981 36.1618C67.2849 36.1618 67.2723 36.1599 67.2598 36.1582C67.2516 36.157 67.2434 36.1559 67.235 36.1552C67.1927 36.1536 67.1514 36.1478 67.1094 36.1419L67.092 36.1395C67.0319 36.1318 66.9719 36.1233 66.9148 36.1077L66.8942 36.1021C66.8715 36.096 66.8495 36.09 66.8277 36.0812C66.7526 36.0572 66.6811 36.0284 66.6132 35.996C66.5988 35.9905 66.5856 35.9821 66.5712 35.9725C66.4889 35.9281 66.4108 35.8794 66.3375 35.8212C66.3363 35.8193 66.3327 35.8187 66.3321 35.8169L60.8848 31.4118C60.5058 31.1061 60.3093 30.6585 60.3093 30.2062C60.3093 29.8638 60.4204 29.519 60.6529 29.2324C61.1912 28.5669 62.1668 28.4635 62.8323 29.0018ZM60.3562 28.992C61.0271 28.1629 62.2428 28.0342 63.0723 28.705L65.0581 30.3113C62.9592 15.3859 50.1079 3.86371 34.6136 3.86371C17.6581 3.86371 3.86385 17.6577 3.86385 34.6119C3.86385 51.5662 17.6578 65.3617 34.6136 65.3617C47.3172 65.3617 58.878 57.3814 63.3782 45.5044C63.7549 44.5074 64.8712 44.0027 65.8688 44.3813C66.6828 44.6884 67.1662 45.4884 67.1138 46.312L67.2082 46.304L66.993 46.8718C61.9266 60.2445 48.9157 69.2277 34.6138 69.2277C15.527 69.2277 -8.34282e-07 53.7 0 34.6138C8.34363e-07 15.5258 15.5262 -8.34349e-07 34.6138 0C52.0031 7.60112e-07 66.4293 12.8923 68.8589 29.6215L70.2098 27.9529C70.8815 27.1209 72.0973 26.9946 72.9265 27.6652C73.7561 28.3342 73.8862 29.5525 73.2129 30.3817L68.8043 35.8337C68.7641 35.882 68.7207 35.9229 68.694 35.948L68.6901 35.9518C68.682 35.9594 68.6755 35.9656 68.6692 35.9716C68.6653 35.9755 68.6546 35.9863 68.6406 35.9986C68.5647 36.0715 68.4839 36.1377 68.3998 36.1972L68.3789 36.212L68.3624 36.2207L68.3584 36.2234L68.3543 36.226C68.3539 36.2263 68.3536 36.2265 68.3532 36.2267C68.2671 36.2837 68.1768 36.3328 68.084 36.3729C68.0844 36.3728 68.0838 36.373 68.084 36.3729M68.084 36.3729C68.0695 36.3793 68.0552 36.3853 68.044 36.3899C68.0318 36.3951 68.0225 36.3989 68.014 36.4027L68.0064 36.406L67.9987 36.4089C67.9127 36.442 67.8308 36.465 67.7574 36.4838L67.7487 36.486L67.7399 36.4878C67.704 36.4952 67.6609 36.504 67.6142 36.5114C67.5427 36.5229 67.4729 36.5299 67.405 36.5342L67.3988 36.5351C67.3889 36.5366 67.346 36.5438 67.2978 36.5438C67.2534 36.5438 67.2145 36.5377 67.2058 36.5364L67.204 36.5362C67.1484 36.5332 67.0972 36.526 67.0618 36.5211L67.0426 36.5184C67.042 36.5183 67.0415 36.5183 67.0409 36.5182C66.9822 36.5106 66.8986 36.4994 66.8138 36.4762L66.795 36.4711L66.7912 36.4701C66.7729 36.4651 66.738 36.4559 66.6998 36.4414C66.615 36.4139 66.5345 36.3813 66.4582 36.3453C66.4219 36.3298 66.3921 36.3119 66.3742 36.3003C66.2868 36.2523 66.1975 36.1967 66.1101 36.1285C66.1071 36.1263 66.1039 36.1239 66.1007 36.1215C66.095 36.1171 66.0886 36.1119 66.0815 36.1058L66.0528 36.083L66.0521 36.0819L60.6448 31.7093C60.1719 31.3278 59.9273 30.7689 59.9273 30.2063C59.9273 29.7812 60.0656 29.3502 60.3562 28.992M20.8297 46.7265L45.8374 21.7188C46.0921 21.4324 46.4534 21.2633 46.8361 21.25C47.2247 21.2366 47.6004 21.3854 47.8746 21.6597C48.1489 21.934 48.2976 22.3097 48.2842 22.6983C48.2711 23.0809 48.1018 23.4421 47.8154 23.697L22.8079 48.7046L22.7981 48.7131C22.2429 49.1975 21.4073 49.1698 20.8861 48.6481C20.3645 48.1271 20.3368 47.2915 20.8211 46.7363L20.8297 46.7265ZM21.1091 46.9871C20.7565 47.3914 20.777 47.9991 21.1563 48.3779C21.5352 48.7573 22.1429 48.7778 22.5471 48.4252L47.5541 23.4182C47.7669 23.2327 47.893 22.9669 47.9028 22.6849C47.9125 22.4024 47.8044 22.1292 47.6048 21.9296C47.405 21.7299 47.1318 21.6218 46.8494 21.6316C46.5675 21.6413 46.3016 21.7675 46.116 21.9802L21.1091 46.9871ZM36.6693 37.1494C37.9193 35.8999 39.6144 35.1973 41.3821 35.1973C43.15 35.1973 44.8453 35.8999 46.0954 37.1494C47.3449 38.3996 48.0476 40.0951 48.0476 41.8628C48.0476 43.6302 47.345 45.3256 46.0955 46.5756C44.8453 47.8257 43.1498 48.5278 41.3821 48.5278C39.6144 48.5278 37.9195 47.8257 36.6693 46.5756C35.4192 45.3256 34.7171 43.6301 34.7171 41.8628C34.7171 40.0949 35.4192 38.3996 36.6693 37.1494ZM31.9926 33.2559C30.7426 34.5055 29.0477 35.208 27.2799 35.208C25.512 35.208 23.8167 34.5055 22.5666 33.2559C21.317 32.0059 20.6144 30.3103 20.6144 28.5426C20.6144 26.7752 21.317 25.0799 22.5665 23.8298C23.8166 22.5796 25.5122 21.8776 27.2799 21.8776C29.0476 21.8776 30.7425 22.5796 31.9926 23.8298C33.2429 25.0799 33.9449 26.7754 33.9449 28.5426C33.9449 30.3104 33.2428 32.0058 31.9926 33.2559ZM27.278 24.2839C27.2594 24.284 27.2409 24.2841 27.2223 24.2845C27.1418 24.2856 27.0616 24.2892 26.9816 24.2949C25.9614 24.368 24.9981 24.8058 24.2706 25.5334C23.4723 26.3316 23.0229 27.4136 23.0214 28.5425C23.0214 29.6721 23.47 30.7552 24.2686 31.5539C25.0672 32.3525 26.1503 32.8011 27.2801 32.8011C28.4093 32.8011 29.4924 32.3525 30.291 31.5539C31.0897 30.7553 31.5386 29.6723 31.5386 28.5425C31.5386 27.4132 31.0897 26.3302 30.291 25.5315C29.5076 24.748 28.4503 24.3011 27.3442 24.2845C27.3228 24.2841 27.3014 24.2843 27.2801 24.2843M27.2806 24.6659C26.2523 24.6677 25.2672 25.0769 24.5405 25.8036C23.8137 26.5304 23.4045 27.5155 23.4032 28.543C23.4033 29.5714 23.8117 30.5571 24.5386 31.284C25.2654 32.011 26.2514 32.4193 27.2799 32.4193C28.3079 32.4193 29.2938 32.011 30.0208 31.284C30.7479 30.557 31.1566 29.5711 31.1566 28.5426C31.1566 27.5148 30.7478 26.5289 30.0208 25.8017C29.2939 25.0747 28.3082 24.6661 27.2806 24.6659ZM38.6413 44.6037C39.3683 45.3309 40.3542 45.7395 41.3821 45.7395C42.4105 45.7395 43.3964 45.3307 44.1235 44.6037C44.8505 43.8767 45.2589 42.8908 45.2589 41.8628C45.2589 40.8343 44.8505 39.8484 44.1235 39.1214C43.3965 38.3944 42.4106 37.986 41.3821 37.986C40.3542 37.986 39.3683 38.3944 38.6412 39.1214C37.9142 39.8485 37.5054 40.8344 37.5054 41.8628C37.5054 42.8906 37.9142 43.8766 38.6413 44.6037ZM22.8368 24.0997C24.0153 22.9212 25.6137 22.2594 27.2801 22.2594C28.9465 22.2594 30.5443 22.9212 31.7228 24.0997C32.9014 25.2781 33.5632 26.8765 33.5632 28.5425C33.5632 30.209 32.9013 31.8072 31.7228 32.9857C30.5443 34.1637 28.9465 34.826 27.2801 34.826C25.6135 34.826 24.0153 34.1636 22.8368 32.9857C21.6588 31.8072 20.9965 30.2089 20.9965 28.5425C20.9965 26.8764 21.6588 25.2781 22.8368 24.0997ZM41.3822 35.5791C39.7158 35.5791 38.118 36.2414 36.9395 37.4194C35.7611 38.5979 35.0992 40.1961 35.0992 41.8627C35.0992 43.5286 35.7611 45.127 36.9395 46.3055C38.118 47.4838 39.7158 48.1458 41.3822 48.1458C43.0487 48.1458 44.647 47.484 45.8255 46.3055C47.0035 45.127 47.6659 43.5287 47.6659 41.8627C47.6659 40.1962 47.0035 38.5979 45.8255 37.4194C44.647 36.2414 43.0489 35.5791 41.3822 35.5791Z" fill="#CAA788"/>
  </g>
  <defs>
    <clipPath id="clip0_1_1565">
      <rect width="73.8429" height="69.2277" fill="white"/>
    </clipPath>
  </defs>
</svg>