<svg xmlns="http://www.w3.org/2000/svg" width="79" height="70" viewBox="0 0 79 70" fill="none">
  <g clip-path="url(#clip0_1_1558)">
    <path d="M5.68958 69.2277H64.4828C68.6554 69.2277 72.0692 65.8138 72.0692 61.6412V53.0118C75.2932 52.5375 77.7592 49.7879 77.7592 46.4685V35.0893C77.7592 31.77 75.2939 29.0204 72.0692 28.546V19.9166C72.0692 15.744 68.6554 12.3301 64.4828 12.3301H56.6121L55.0001 1.61579C54.9055 1.04693 54.6211 0.572651 54.1469 0.288236C53.6726 0.00380348 53.1037 -0.0907875 52.6294 0.098394L9.48278 12.3308H5.69001C2.56069 12.3308 0 14.8913 0 18.0209V63.5382C0 66.6675 2.5601 69.2277 5.68958 69.2277ZM73.9656 35.0897V46.4688C73.9656 48.0808 72.7327 49.3139 71.1206 49.3139H56.8964C53.7671 49.3139 51.2064 46.7534 51.2064 43.6238V37.9339C51.2064 34.8046 53.7669 32.2438 56.8964 32.2438H71.1206C72.7333 32.2445 73.9656 33.4776 73.9656 35.0897ZM51.5863 4.27063L52.8192 12.3313L23.3278 12.3307L51.5863 4.27063ZM3.79303 18.0205C3.79303 16.9774 4.64632 16.1242 5.68942 16.1242H64.4827C66.5689 16.1242 68.2755 17.8306 68.2755 19.9169V28.4511L56.8963 28.4517C51.6805 28.4517 47.4135 32.7187 47.4135 37.9345V43.6245C47.4135 48.8402 51.6805 53.1073 56.8963 53.1073H68.2755V61.6415C68.2755 63.7277 66.5689 65.4342 64.4827 65.4342H5.68942C4.64627 65.4342 3.79303 64.5809 3.79303 63.5379V18.0205Z" fill="#CAA788"/>
    <path d="M58.6749 43.1807C60.0777 43.1807 61.2149 42.0434 61.2149 40.6406C61.2149 39.2378 60.0777 38.1006 58.6749 38.1006C57.272 38.1006 56.1348 39.2378 56.1348 40.6406C56.1348 42.0434 57.272 43.1807 58.6749 43.1807Z" fill="#00ABE4"/>
  </g>
  <defs>
    <clipPath id="clip0_1_1558">
      <rect width="78.458" height="69.2277" fill="white"/>
    </clipPath>
  </defs>
</svg>